<?xml version="1.0" standalone="no"?>
<!DOCTYPE svg PUBLIC "-//W3C//DTD SVG 20010904//EN"
 "http://www.w3.org/TR/2001/REC-SVG-20010904/DTD/svg10.dtd">
<svg version="1.0" xmlns="http://www.w3.org/2000/svg"
 width="500.000000pt" height="712.000000pt" viewBox="0 0 500.000000 712.000000"
 preserveAspectRatio="xMidYMid meet">

<g transform="translate(0.000000,712.000000) scale(0.100000,-0.100000)"
fill="#000000" stroke="none">
<path d="M2500 5757 l0 -154 87 -2 c201 -5 402 -62 587 -169 104 -60 201 -132
431 -322 223 -183 279 -226 400 -307 111 -74 235 -141 340 -184 44 -18 84 -36
88 -39 5 -4 -9 -43 -31 -86 -108 -215 -162 -464 -162 -745 l0 -109 148 0 149
0 7 154 c3 85 13 192 21 238 42 241 162 472 339 651 l85 86 -47 6 c-213 28
-382 75 -547 154 -184 88 -313 177 -604 419 -205 171 -355 282 -467 346 -219
127 -443 191 -731 212 l-93 6 0 -155z"/>
<path d="M1950 5819 c-234 -81 -387 -179 -750 -479 -295 -243 -410 -323 -595
-411 -165 -79 -321 -122 -562 -155 l-32 -5 85 -86 c137 -139 240 -308 299
-492 50 -155 56 -211 62 -608 l5 -373 149 0 149 0 0 319 c0 507 -27 677 -151
940 -27 58 -46 108 -42 111 5 4 40 19 78 35 226 92 421 220 747 492 186 155
247 203 350 272 81 54 228 130 291 150 l37 13 0 154 c0 179 10 169 -120 123z"/>
<path d="M1997 5430 c-149 -65 -266 -146 -542 -375 -309 -257 -462 -363 -667
-463 -65 -31 -116 -61 -113 -67 117 -272 153 -428 162 -707 l6 -178 189 0 188
0 0 205 c0 158 3 205 13 205 7 0 93 -81 192 -181 99 -99 198 -190 220 -202 36
-20 58 -22 233 -25 l192 -4 0 179 c0 254 9 234 -222 469 -103 105 -188 194
-188 197 0 4 92 7 205 7 l205 0 0 485 c0 267 -1 485 -2 485 -2 -1 -33 -14 -71
-30z"/>
<path d="M2920 4976 l0 -486 210 0 c162 0 210 -3 210 -13 0 -7 -81 -93 -181
-192 -99 -99 -190 -198 -202 -220 -20 -36 -22 -57 -25 -233 l-4 -194 194 4
c176 3 197 5 233 25 22 12 121 103 220 202 99 100 185 181 192 181 10 0 13
-47 13 -205 l0 -205 188 0 189 0 6 178 c3 97 13 218 22 267 18 106 75 294 116
385 21 45 26 66 18 69 -7 2 -67 31 -133 65 -194 98 -333 196 -646 455 -107 89
-235 190 -285 226 -82 58 -256 153 -312 170 l-23 6 0 -485z"/>
<path d="M1821 3505 c-60 -19 -108 -68 -126 -129 -20 -67 -20 -266 0 -332 15
-53 48 -90 105 -120 29 -16 59 -19 185 -19 l149 0 8 45 c4 25 10 55 13 67 5
21 3 21 -125 25 -168 4 -172 7 -178 140 -5 114 8 170 43 186 15 7 72 12 129
12 l104 0 11 63 c6 35 11 67 11 70 0 13 -284 6 -329 -8z"/>
<path d="M2250 3209 l0 -311 203 4 c192 3 204 4 244 27 24 14 49 38 58 57 22
47 20 151 -5 192 -11 17 -23 32 -27 32 -5 0 -15 4 -23 10 -12 7 -10 13 12 33
55 51 57 176 5 225 -39 37 -73 42 -273 42 l-194 0 0 -311z m325 177 c21 -15
25 -67 5 -90 -9 -12 -33 -16 -96 -16 l-84 0 0 53 c0 30 3 57 7 60 12 13 149 7
168 -7z m23 -238 c7 -7 12 -30 12 -53 0 -23 -5 -46 -12 -53 -8 -8 -46 -12
-105 -12 l-93 0 0 65 0 65 93 0 c59 0 97 -4 105 -12z"/>
<path d="M2850 3210 l0 -310 85 0 85 0 0 115 0 115 115 0 c130 0 125 -3 139
88 l6 42 -130 0 -130 0 0 65 0 65 139 0 139 0 6 38 c4 20 9 49 12 65 l6 27
-236 0 -236 0 0 -310z"/>
<path d="M4237 2558 c-3 -622 -4 -657 -24 -738 -42 -169 -89 -279 -179 -417
-128 -198 -278 -302 -654 -453 -85 -34 -221 -94 -302 -133 l-148 -70 0 -178 0
-177 93 56 c110 67 222 120 451 214 377 155 495 224 652 382 193 193 318 430
385 731 22 97 23 118 26 768 l4 667 -150 0 -150 0 -4 -652z"/>
<path d="M463 2328 c4 -460 4 -464 30 -573 72 -300 190 -520 381 -711 157
-158 282 -231 646 -379 425 -173 606 -284 852 -524 l128 -124 0 210 0 211 -37
34 c-171 154 -434 309 -733 433 -255 106 -309 129 -391 171 -244 122 -408 315
-507 596 -63 178 -66 203 -72 678 l-5 435 -148 3 -148 3 4 -463z"/>
<path d="M3780 2586 c0 -138 -4 -207 -11 -212 -6 -3 -88 73 -192 179 -100 102
-198 193 -217 204 -30 15 -64 18 -233 21 l-199 4 4 -194 c3 -189 4 -194 30
-238 15 -25 106 -124 202 -220 97 -96 176 -178 176 -182 0 -5 -92 -8 -205 -8
l-205 0 0 -550 c0 -302 2 -550 5 -550 3 0 46 20 95 45 50 25 183 84 296 131
347 143 440 197 555 322 114 124 195 281 246 477 26 99 27 105 30 538 l4 437
-190 0 -191 0 0 -204z"/>
<path d="M843 2348 c3 -428 4 -434 30 -533 51 -196 132 -353 246 -477 115
-125 208 -179 555 -322 113 -47 246 -106 296 -131 49 -25 94 -45 100 -45 7 0
10 183 10 550 l0 550 -210 0 c-115 0 -210 3 -210 8 0 4 81 88 181 187 235 234
229 221 229 463 l0 182 -177 0 c-98 0 -196 -5 -218 -11 -33 -9 -77 -47 -237
-206 -112 -112 -201 -193 -207 -189 -7 5 -11 73 -11 207 l0 199 -191 0 -190 0
4 -432z"/>
</g>
</svg>
